<svg xmlns="http://www.w3.org/2000/svg"
 xmlns:xlink="http://www.w3.org/1999/xlink"
 width="142px" height="15px"  viewBox="0 0 142 15">
<path fill-rule="evenodd"  fill="#26272d"
 d="M11.958862,12.769272 C11.958862,12.769272 11.958862,1.4413261 11.958862,1.4413261 C11.958862,1.4413261 9.302795,1.4413261 9.302795,1.4413261 C9.302795,1.4413261 9.366882,8.833267 9.366882,8.833267 C9.366882,8.833267 9.318848,8.833267 9.318848,8.833267 C9.318848,8.833267 4.7748413,1.4413261 4.7748413,1.4413261 C4.7748413,1.4413261 1.6547852,1.4413261 1.6547852,1.4413261 C1.6547852,1.4413261 1.6547852,12.769272 1.6547852,12.769272 C1.6547852,12.769272 4.310913,12.769272 4.310913,12.769272 C4.310913,12.769272 4.246826,5.361725 4.246826,5.361725 C4.246826,5.361725 4.294861,5.361725 4.294861,5.361725 C4.294861,5.361725 8.854858,12.769272 8.854858,12.769272 C8.854858,12.769272 11.958862,12.769272 11.958862,12.769272 ZM22.198792,12.769272 C22.198792,12.769272 22.198792,10.433647 22.198792,10.433647 C22.198792,10.433647 16.934753,10.433647 16.934753,10.433647 C16.934753,10.433647 16.934753,8.081497 16.934753,8.081497 C16.934753,8.081497 21.638794,8.081497 21.638794,8.081497 C21.638794,8.081497 21.638794,5.8895264 21.638794,5.8895264 C21.638794,5.8895264 16.934753,5.8895264 16.934753,5.8895264 C16.934753,5.8895264 16.934753,3.7457428 16.934753,3.7457428 C16.934753,3.7457428 21.910767,3.7457428 21.910767,3.7457428 C21.910767,3.7457428 21.910767,1.4413261 21.910767,1.4413261 C21.910767,1.4413261 14.294739,1.4413261 14.294739,1.4413261 C14.294739,1.4413261 14.294739,12.769272 14.294739,12.769272 C14.294739,12.769272 22.198792,12.769272 22.198792,12.769272 ZM39.238647,1.4413261 C39.238647,1.4413261 36.390686,1.4413261 36.390686,1.4413261 C36.390686,1.4413261 34.56671,8.977379 34.56671,8.977379 C34.56671,8.977379 34.518616,8.977379 34.518616,8.977379 C34.518616,8.977379 32.486633,1.4413261 32.486633,1.4413261 C32.486633,1.4413261 29.638672,1.4413261 29.638672,1.4413261 C29.638672,1.4413261 27.62268,8.977379 27.62268,8.977379 C27.62268,8.977379 27.574646,8.977379 27.574646,8.977379 C27.574646,8.977379 25.782654,1.4413261 25.782654,1.4413261 C25.782654,1.4413261 22.838684,1.4413261 22.838684,1.4413261 C22.838684,1.4413261 26.054688,12.769272 26.054688,12.769272 C26.054688,12.769272 28.774658,12.769272 28.774658,12.769272 C28.774658,12.769272 31.014648,5.105629 31.014648,5.105629 C31.014648,5.105629 31.062683,5.105629 31.062683,5.105629 C31.062683,5.105629 33.302673,12.769272 33.302673,12.769272 C33.302673,12.769272 36.006653,12.769272 36.006653,12.769272 C36.006653,12.769272 39.238647,1.4413261 39.238647,1.4413261 ZM40.614624,12.769272 C40.614624,12.769272 42.198547,12.769272 42.198547,12.769272 C42.198547,12.769272 42.198547,7.793274 42.198547,7.793274 C42.198547,7.793274 43.99054,7.793274 43.99054,7.793274 C44.577026,7.793274 45.12378,7.732231 45.630554,7.6096954 C46.137024,7.487152 46.574585,7.2976 46.942505,7.041504 C47.310547,6.785408 47.59857,6.4554214 47.80652,6.04924 C48.014526,5.6444397 48.11859,5.158867 48.11859,4.593437 C48.11859,4.0390167 48.022583,3.564457 47.830566,3.169754 C47.63861,2.775051 47.366516,2.4496536 47.014526,2.193554 C46.662537,1.937458 46.23584,1.7483673 45.73462,1.6258278 C45.233032,1.5032845 44.67859,1.4413261 44.070557,1.4413261 C44.070557,1.4413261 40.614624,1.4413261 40.614624,1.4413261 C40.614624,1.4413261 40.614624,12.769272 40.614624,12.769272 ZM42.198547,2.7856064 C42.198547,2.7856064 43.910583,2.7856064 43.910583,2.7856064 C44.283752,2.7856064 44.630493,2.8149796 44.95056,2.873726 C45.270508,2.9324722 45.545105,3.0334435 45.774536,3.177555 C46.003784,3.321209 46.184998,3.5080032 46.318542,3.7374802 C46.451843,3.966961 46.518494,4.2519684 46.518494,4.593437 C46.518494,4.935356 46.45453,5.2231216 46.326538,5.457649 C46.198547,5.6926346 46.01709,5.8812637 45.782593,6.0253754 C45.54779,6.169487 45.26776,6.276428 44.942566,6.3452682 C44.617065,6.4150314 44.262573,6.4494476 43.87854,6.4494476 C43.87854,6.4494476 42.198547,6.4494476 42.198547,6.4494476 C42.198547,6.4494476 42.198547,2.7856064 42.198547,2.7856064 ZM51.718323,7.729477 C51.718323,7.729477 53.414368,7.729477 53.414368,7.729477 C53.414368,7.729477 56.29431,12.769272 56.29431,12.769272 C56.29431,12.769272 58.214355,12.769272 58.214355,12.769272 C58.214355,12.769272 55.046387,7.5693054 55.046387,7.5693054 C55.85681,7.430702 56.51837,7.1057587 57.030273,6.593567 C57.542297,6.0813675 57.79828,5.4094543 57.79828,4.5773697 C57.79828,4.001381 57.69159,3.5135117 57.478333,3.1133003 C57.26477,2.7135506 56.974304,2.3909073 56.606262,2.1453629 C56.238342,1.9002838 55.808838,1.7217484 55.31836,1.6093025 C54.827576,1.4973183 54.310303,1.4413261 53.766357,1.4413261 C53.766357,1.4413261 50.1344,1.4413261 50.1344,1.4413261 C50.1344,1.4413261 50.1344,12.769272 50.1344,12.769272 C50.1344,12.769272 51.718323,12.769272 51.718323,12.769272 C51.718323,12.769272 51.718323,7.729477 51.718323,7.729477 ZM51.718323,2.7856064 C51.718323,2.7856064 53.654297,2.7856064 53.654297,2.7856064 C53.995605,2.7856064 54.3208,2.8149796 54.63037,2.873726 C54.939575,2.9324722 55.208862,3.0306892 55.438354,3.169754 C55.667603,3.3078995 55.851562,3.4924011 55.990295,3.7214203 C56.128906,3.9508972 56.198303,4.2363663 56.198303,4.5773697 C56.198303,4.918831 56.128906,5.2043076 55.990295,5.4337845 C55.851562,5.6628036 55.662354,5.849594 55.422302,5.9937057 C55.182373,6.1378174 54.902344,6.241089 54.582275,6.3058014 C54.26233,6.3695908 53.91559,6.401718 53.542297,6.401718 C53.542297,6.401718 51.718323,6.401718 51.718323,6.401718 C51.718323,6.401718 51.718323,2.7856064 51.718323,2.7856064 ZM70.92627,4.665489 C70.622314,3.9348335 70.20361,3.3111115 69.67029,2.7934113 C69.13678,2.276165 68.50232,1.8732033 67.7663,1.5854378 C67.030334,1.2972145 66.230286,1.1535606 65.36627,1.1535606 C64.50232,1.1535606 63.704773,1.2972145 62.974365,1.5854378 C62.24353,1.8732033 61.611572,2.276165 61.07837,2.7934113 C60.5448,3.3111115 60.128784,3.9348335 59.83026,4.665489 C59.531616,5.3961487 59.382324,6.2043686 59.382324,7.0892334 C59.382324,7.9644623 59.531616,8.767181 59.83026,9.497833 C60.128784,10.228493 60.5448,10.857262 61.07837,11.385521 C61.611572,11.91378 62.24353,12.324081 62.974365,12.617355 C63.704773,12.911087 64.50232,13.057495 65.36627,13.057495 C66.230286,13.057495 67.030334,12.911087 67.7663,12.617355 C68.50232,12.324081 69.13678,11.91378 69.67029,11.385521 C70.20361,10.857262 70.622314,10.228493 70.92627,9.497833 C71.230286,8.767181 71.382324,7.9644623 71.382324,7.0892334 C71.382324,6.2043686 71.230286,5.3961487 70.92627,4.665489 ZM69.36627,8.865852 C69.16351,9.420273 68.87561,9.903091 68.50232,10.3134 C68.128784,10.724167 67.6756,11.046814 67.14227,11.281799 C66.608826,11.516327 66.016785,11.633354 65.36627,11.633354 C64.715576,11.633354 64.128784,11.516327 63.606323,11.281799 C63.083557,11.046814 62.635498,10.724167 62.26233,10.3134 C61.888794,9.903091 61.60077,9.420273 61.398315,8.865852 C61.195557,8.310974 61.0943,7.7189255 61.0943,7.0892334 C61.0943,6.4710236 61.195557,5.886772 61.398315,5.3374023 C61.60077,4.7880325 61.88629,4.3056717 62.254333,3.8893967 C62.622375,3.4735832 63.070312,3.1458893 63.598328,2.9058533 C64.12628,2.665821 64.715576,2.5455742 65.36627,2.5455742 C66.02753,2.5455742 66.622375,2.665821 67.15033,2.9058533 C67.678345,3.1458893 68.128784,3.4735832 68.50232,3.8893967 C68.87561,4.3056717 69.16351,4.7880325 69.36627,5.3374023 C69.56885,5.886772 69.67029,6.4710236 69.67029,7.0892334 C69.67029,7.7189255 69.56885,8.310974 69.36627,8.865852 ZM73.70245,1.4413261 C73.70245,1.4413261 71.942444,1.4413261 71.942444,1.4413261 C71.942444,1.4413261 76.3584,12.769272 76.3584,12.769272 C76.3584,12.769272 77.83038,12.769272 77.83038,12.769272 C77.83038,12.769272 82.27844,1.4413261 82.27844,1.4413261 C82.27844,1.4413261 80.56641,1.4413261 80.56641,1.4413261 C80.56641,1.4413261 77.158325,10.721413 77.158325,10.721413 C77.158325,10.721413 77.11035,10.721413 77.11035,10.721413 C77.11035,10.721413 73.70245,1.4413261 73.70245,1.4413261 ZM85.20642,1.4413261 C85.20642,1.4413261 83.622375,1.4413261 83.622375,1.4413261 C83.622375,1.4413261 83.622375,12.769272 83.622375,12.769272 C83.622375,12.769272 85.20642,12.769272 85.20642,12.769272 C85.20642,12.769272 85.20642,1.4413261 85.20642,1.4413261 ZM87.95831,12.769272 C87.95831,12.769272 91.84625,12.769272 91.84625,12.769272 C92.57153,12.769272 93.296814,12.654991 94.02228,12.425514 C94.74756,12.196037 95.403564,11.849525 95.990295,11.385521 C96.57678,10.921516 97.05151,10.334969 97.41431,9.625427 C97.776794,8.916336 97.95825,8.076447 97.95825,7.1057587 C97.95825,6.1029434 97.776794,5.244232 97.41431,4.5291824 C97.05151,3.8150444 96.57678,3.2285004 95.990295,2.7695427 C95.403564,2.3110466 94.74756,1.97509 94.02228,1.7616768 C93.296814,1.5482635 92.57153,1.4413261 91.84625,1.4413261 C91.84625,1.4413261 87.95831,1.4413261 87.95831,1.4413261 C87.95831,1.4413261 87.95831,12.769272 87.95831,12.769272 ZM89.5423,2.817276 C89.5423,2.817276 91.526306,2.817276 91.526306,2.817276 C92.20874,2.817276 92.84076,2.910904 93.4223,3.0976982 C94.0036,3.2840347 94.50482,3.5561943 94.92633,3.9137192 C95.347595,4.27079 95.67554,4.715973 95.91028,5.2497406 C96.144775,5.782585 96.26227,6.401718 96.26227,7.1057587 C96.26227,7.777672 96.144775,8.38028 95.91028,8.913582 C95.67554,9.44735 95.347595,9.894829 94.92633,10.257408 C94.50482,10.620438 94.0036,10.897652 93.4223,11.089493 C92.84076,11.281799 92.20874,11.377716 91.526306,11.377716 C91.526306,11.377716 89.5423,11.377716 89.5423,11.377716 C89.5423,11.377716 89.5423,2.817276 89.5423,2.817276 ZM101.71802,7.585823 C101.71802,7.585823 107.06207,7.585823 107.06207,7.585823 C107.06207,7.585823 107.06207,6.225479 107.06207,6.225479 C107.06207,6.225479 101.71802,6.225479 101.71802,6.225479 C101.71802,6.225479 101.71802,2.8337975 101.71802,2.8337975 C101.71802,2.8337975 107.39813,2.8337975 107.39813,2.8337975 C107.39813,2.8337975 107.39813,1.4413261 107.39813,1.4413261 C107.39813,1.4413261 100.134094,1.4413261 100.134094,1.4413261 C100.134094,1.4413261 100.134094,12.769272 100.134094,12.769272 C100.134094,12.769272 107.63806,12.769272 107.63806,12.769272 C107.63806,12.769272 107.63806,11.361198 107.63806,11.361198 C107.63806,11.361198 101.71802,11.361198 101.71802,11.361198 C101.71802,11.361198 101.71802,7.585823 101.71802,7.585823 ZM111.814026,1.4413261 C111.814026,1.4413261 109.75006,1.4413261 109.75006,1.4413261 C109.75006,1.4413261 109.75006,12.769272 109.75006,12.769272 C109.75006,12.769272 111.334045,12.769272 111.334045,12.769272 C111.334045,12.769272 111.334045,3.5213127 111.334045,3.5213127 C111.334045,3.5213127 111.36609,3.5213127 111.36609,3.5213127 C111.36609,3.5213127 117.3501,12.769272 117.3501,12.769272 C117.3501,12.769272 119.35004,12.769272 119.35004,12.769272 C119.35004,12.769272 119.35004,1.4413261 119.35004,1.4413261 C119.35004,1.4413261 117.76611,1.4413261 117.76611,1.4413261 C117.76611,1.4413261 117.76611,10.497444 117.76611,10.497444 C117.76611,10.497444 117.73407,10.497444 117.73407,10.497444 C117.73407,10.497444 111.814026,1.4413261 111.814026,1.4413261 ZM130.54993,10.145424 C130.20837,10.636505 129.77637,11.009636 129.25385,11.265274 C128.73114,11.521828 128.1499,11.649879 127.50989,11.649879 C126.85907,11.649879 126.26984,11.532387 125.74188,11.297401 C125.21393,11.063332 124.76587,10.740227 124.39783,10.32946 C124.02985,9.919159 123.74713,9.436333 123.549866,8.881454 C123.352356,8.327042 123.253845,7.729477 123.253845,7.0892334 C123.253845,6.4710236 123.3551,5.886772 123.55786,5.3374023 C123.760315,4.7880325 124.04834,4.3056717 124.421875,3.8893967 C124.795166,3.4735832 125.24585,3.1458893 125.773926,2.9058533 C126.30188,2.665821 126.89636,2.5455742 127.55786,2.5455742 C128.14435,2.5455742 128.6911,2.670868 129.19788,2.9214592 C129.70435,3.1720467 130.09631,3.4891853 130.37384,3.8737907 C130.37384,3.8737907 131.62183,2.9131966 131.62183,2.9131966 C131.40839,2.625431 131.15234,2.3720894 130.85382,2.1536255 C130.55518,1.9351616 130.2243,1.7506638 129.86182,1.6015015 C129.49915,1.4518814 129.12036,1.3403549 128.72589,1.2655449 C128.33105,1.1911964 127.941895,1.1535606 127.55786,1.1535606 C126.69385,1.1535606 125.89386,1.2972145 125.15784,1.5854378 C124.421875,1.8732033 123.78436,2.276165 123.24591,2.7934113 C122.70709,3.3111115 122.28583,3.9348335 121.98193,4.665489 C121.67786,5.3961487 121.52588,6.2043686 121.52588,7.0892334 C121.52588,7.9644623 121.67511,8.767181 121.97388,9.497833 C122.2724,10.228493 122.68591,10.857262 123.21387,11.385521 C123.74182,11.91378 124.371155,12.324081 125.10187,12.617355 C125.83234,12.911087 126.62982,13.057495 127.493835,13.057495 C128.49634,13.057495 129.35516,12.86795 130.06982,12.489769 C130.7843,12.110672 131.36584,11.617752 131.8139,11.009636 C131.8139,11.009636 130.54993,10.145424 130.54993,10.145424 ZM135.0138,7.585823 C135.0138,7.585823 140.35779,7.585823 140.35779,7.585823 C140.35779,7.585823 140.35779,6.225479 140.35779,6.225479 C140.35779,6.225479 135.0138,6.225479 135.0138,6.225479 C135.0138,6.225479 135.0138,2.8337975 135.0138,2.8337975 C135.0138,2.8337975 140.69373,2.8337975 140.69373,2.8337975 C140.69373,2.8337975 140.69373,1.4413261 140.69373,1.4413261 C140.69373,1.4413261 133.42969,1.4413261 133.42969,1.4413261 C133.42969,1.4413261 133.42969,12.769272 133.42969,12.769272 C133.42969,12.769272 140.93372,12.769272 140.93372,12.769272 C140.93372,12.769272 140.93372,11.361198 140.93372,11.361198 C140.93372,11.361198 135.0138,11.361198 135.0138,11.361198 C135.0138,11.361198 135.0138,7.585823 135.0138,7.585823 Z"/>
</svg>