<svg id="Layer_1" enable-background="new 0 0 509.941 509.941" height="512" viewBox="0 0 509.941 509.941" width="512" xmlns="http://www.w3.org/2000/svg"><path d="m354.672 173.254h-199.4c-37.85 0-68.644 30.793-68.644 68.644v199.4c0 37.85 30.793 68.644 68.644 68.644h199.4c37.85 0 68.644-30.793 68.644-68.644v-199.4c0-37.851-30.794-68.644-68.644-68.644z" fill="#80b9ed"/><path d="m292.964 385.782c47.717-23.478 91.156-34.333 130.351-36.313v-107.572c0-37.85-30.793-68.644-68.644-68.644h-199.4c-37.85 0-68.644 30.793-68.644 68.644 0 137.338-.015 197.753.028 200.485 58.363-2.393 127.476-17.812 206.309-56.6z" fill="#8bc4ff"/><path d="m207.95 275.645c87.16 36.408 160.405 32.062 215.366 15.519v-49.266c0-37.85-30.793-68.644-68.644-68.644h-199.4c-36.046 0-65.67 27.933-68.414 63.287 33.877 7.209 74.021 19.441 121.092 39.104z" fill="#a2d0f9"/><g fill="#2e58ff"><path d="m367.755 174.52v-61.737c0-62.189-50.594-112.783-112.783-112.783s-112.783 50.594-112.783 112.783v61.737c-31.612 6.127-55.561 34.002-55.561 67.378v199.4c0 37.85 30.793 68.644 68.644 68.644h199.4c37.85 0 68.644-30.793 68.644-68.644v-199.4c0-33.376-23.948-61.251-55.561-67.378zm-112.783-142.52c44.544 0 80.783 36.239 80.783 80.783v60.471h-161.566v-60.471c0-44.544 36.239-80.783 80.783-80.783zm136.344 409.298c0 20.206-16.438 36.644-36.644 36.644h-199.4c-20.206 0-36.644-16.438-36.644-36.644v-199.4c0-20.206 16.438-36.644 36.644-36.644h199.4c20.206 0 36.644 16.438 36.644 36.644z"/><path d="m229.623 298.537c-17.313 17.313-12.523 46.516 9.349 57.429v20.507c0 8.836 7.164 16 16 16s16-7.164 16-16v-20.507c21.914-10.933 26.634-40.145 9.349-57.429-14-14-36.698-14-50.698 0z"/></g></svg>