<?xml version="1.0" encoding="iso-8859-1"?>
<!-- Generator: Adobe Illustrator 19.0.0, SVG Export Plug-In . SVG Version: 6.00 Build 0)  -->
<svg version="1.1" id="Capa_1" xmlns="http://www.w3.org/2000/svg" xmlns:xlink="http://www.w3.org/1999/xlink" x="0px" y="0px"
	 viewBox="0 0 432.588 432.588" style="enable-background:new 0 0 432.588 432.588;" xml:space="preserve">
<path style="fill:#4DCFE0;" d="M292.833,247.641h-78.367c-8.882,0-15.673-6.792-15.673-15.673V123.82
	c0-8.882,6.792-15.673,15.673-15.673s15.673,6.792,15.673,15.673v92.473h62.694c8.882,0,15.673,6.792,15.673,15.673
	S301.714,247.641,292.833,247.641z"/>
<path style="fill:#1185E0;" d="M398.89,148.898c20.376-15.673,32.914-39.706,32.914-65.829C431.804,37.094,394.71,0,348.735,0
	C320,0,293.878,14.629,278.727,38.139c-19.331-6.269-40.229-9.927-62.171-9.927s-43.363,3.657-62.694,10.449
	C138.71,15.151,112.588,0,83.853,0C37.878,0,0.784,37.094,0.784,83.069c0,26.122,12.539,50.678,33.437,66.351
	c-9.927,23.51-15.673,49.633-15.673,76.8c0,54.335,21.943,103.445,57.469,139.494l-33.959,41.273
	c-5.747,6.792-4.702,16.718,2.09,21.943c3.135,2.612,6.269,3.657,9.927,3.657c4.702,0,8.882-2.09,12.016-5.747l33.437-40.751
	c32.914,24.033,73.143,38.139,116.506,38.139s84.114-14.106,116.506-38.139l33.437,40.751c3.135,3.657,7.837,5.747,12.016,5.747
	c3.657,0,6.792-1.045,9.927-3.657c6.792-5.747,7.837-15.151,2.09-21.943l-33.959-41.273c35.527-36.049,57.469-85.159,57.469-139.494
	C414.563,199.053,408.816,172.931,398.89,148.898z M32.131,83.069c0-28.735,22.988-51.722,51.722-51.722
	c15.673,0,30.824,7.314,40.229,19.853c-30.824,16.196-56.947,40.229-75.233,70.008C38.4,111.282,32.131,97.698,32.131,83.069z
	 M216.555,392.882c-91.951,0-166.661-74.71-166.661-166.661s74.71-166.661,166.661-166.661s166.661,74.71,166.661,166.661
	S308.506,392.882,216.555,392.882z M308.506,50.678c9.404-12.016,24.033-19.331,40.229-19.331c28.735,0,51.722,22.988,51.722,51.722
	c0,14.629-5.747,28.212-16.196,37.616C365.453,91.429,339.331,67.396,308.506,50.678z"/>
<g>
</g>
<g>
</g>
<g>
</g>
<g>
</g>
<g>
</g>
<g>
</g>
<g>
</g>
<g>
</g>
<g>
</g>
<g>
</g>
<g>
</g>
<g>
</g>
<g>
</g>
<g>
</g>
<g>
</g>
</svg>
